<?xml version="1.0" encoding="UTF-8"?>
<svg version="1.1" xmlns="http://www.w3.org/2000/svg" width="512" height="512">
<path d="M0 0 C0.9355925 -0.00974854 1.871185 -0.01949707 2.83512878 -0.02954102 C23.24416486 -0.1984297 42.96079539 -0.03089418 63.0078125 4.23828125 C63.93158691 4.42551758 64.85536133 4.61275391 65.80712891 4.80566406 C111.28586786 14.15160545 152.47243686 35.90109891 186.6640625 67.1171875 C188.80705562 69.05659628 190.99125888 70.93157424 193.1953125 72.80078125 C196.40716995 75.61035835 199.22808486 78.58191996 201.98046875 81.83984375 C203.52869966 83.67146952 205.09682178 85.47121074 206.69140625 87.26171875 C222.88012371 105.56853604 235.67592217 126.12833412 246.0078125 148.23828125 C246.54704346 149.38127686 246.54704346 149.38127686 247.09716797 150.54736328 C260.46656896 179.21762319 268.97097327 211.47691951 269.24609375 243.23046875 C269.25584229 244.16606125 269.26559082 245.10165375 269.27563477 246.06559753 C269.44452345 266.47463361 269.27698793 286.19126414 265.0078125 306.23828125 C264.82057617 307.16205566 264.63333984 308.08583008 264.44042969 309.03759766 C255.0944883 354.51633661 233.34499484 395.70290561 202.12890625 429.89453125 C200.18949747 432.03752437 198.31451951 434.22172763 196.4453125 436.42578125 C193.6357354 439.6376387 190.66417379 442.45855361 187.40625 445.2109375 C185.57462423 446.75916841 183.77488301 448.32729053 181.984375 449.921875 C163.67755771 466.11059246 143.11775963 478.90639092 121.0078125 489.23828125 C120.24581543 489.59776855 119.48381836 489.95725586 118.69873047 490.32763672 C90.02847056 503.69703771 57.76917424 512.20144202 26.015625 512.4765625 C25.0800325 512.48631104 24.14444 512.49605957 23.18049622 512.50610352 C2.77146014 512.6749922 -16.94517039 512.50745668 -36.9921875 508.23828125 C-37.91596191 508.05104492 -38.83973633 507.86380859 -39.79150391 507.67089844 C-85.27024286 498.32495705 -126.45681186 476.57546359 -160.6484375 445.359375 C-162.79143062 443.41996622 -164.97563388 441.54498826 -167.1796875 439.67578125 C-170.39154495 436.86620415 -173.21245986 433.89464254 -175.96484375 430.63671875 C-177.51307466 428.80509298 -179.08119678 427.00535176 -180.67578125 425.21484375 C-196.86449871 406.90802646 -209.66029717 386.34822838 -219.9921875 364.23828125 C-220.3516748 363.47628418 -220.71116211 362.71428711 -221.08154297 361.92919922 C-234.45094396 333.25893931 -242.95534827 300.99964299 -243.23046875 269.24609375 C-243.24021729 268.31050125 -243.24996582 267.37490875 -243.26000977 266.41096497 C-243.42889845 246.00192889 -243.26136293 226.28529836 -238.9921875 206.23828125 C-238.80495117 205.31450684 -238.61771484 204.39073242 -238.42480469 203.43896484 C-229.0788633 157.96022589 -207.32936984 116.77365689 -176.11328125 82.58203125 C-174.17387247 80.43903813 -172.29889451 78.25483487 -170.4296875 76.05078125 C-167.6201104 72.8389238 -164.64854879 70.01800889 -161.390625 67.265625 C-159.55899923 65.71739409 -157.75925801 64.14927197 -155.96875 62.5546875 C-137.66193271 46.36597004 -117.10213463 33.57017158 -94.9921875 23.23828125 C-93.84919189 22.69905029 -93.84919189 22.69905029 -92.68310547 22.14892578 C-64.01284556 8.77952479 -31.75354924 0.27512048 0 0 Z " fill="#36A434" transform="translate(242.9921875,-0.23828125)"/>
<path d="M0 0 C22.77 0 45.54 0 69 0 C73.95 9.405 73.95 9.405 79 19 C86.11877793 31.0398829 93.69276594 42.66825715 101.56790161 54.22268677 C104.73913944 58.87717382 107.89540717 63.5417805 111.05078125 68.20703125 C111.70221603 69.17001633 112.35365082 70.1330014 113.02482605 71.12516785 C121.49283313 83.66353494 129.79825099 96.30907367 138.10498047 108.95458984 C138.67134216 109.81673599 139.23770386 110.67888214 139.82122803 111.56715393 C140.93174449 113.25783257 142.0419799 114.94869587 143.1519165 116.63975525 C147.39070092 123.09145437 151.66777204 129.51706432 155.97816467 135.92115784 C162.0812761 145.02649594 167.56821211 154.48378429 173 164 C172.91557374 146.79533602 172.82025488 129.59076984 172.71247292 112.38623714 C172.66265718 104.39528696 172.61621493 96.40434547 172.578125 88.41333008 C172.54486104 81.43666241 172.50484956 74.46006915 172.45720994 67.48348433 C172.43228086 63.80007416 172.41040722 60.11671115 172.39665604 56.43324089 C172.33423141 40.30801703 171.96073158 24.33093362 170.17702293 8.28820133 C169.96387673 5.53307002 170 2.76336386 170 0 C192.44 0 214.88 0 238 0 C237.67 4.29 237.34 8.58 237 13 C236.91664633 16.4346623 236.86406681 19.84775274 236.87301636 23.28103638 C236.87145637 24.23020585 236.86989638 25.17937532 236.86828911 26.15730751 C236.86434609 29.29255091 236.86744251 32.42774464 236.87060547 35.56298828 C236.8692484 37.82961556 236.86746675 40.09624262 236.86529541 42.36286926 C236.86075594 48.48921838 236.86249668 54.61555057 236.8656745 60.74189997 C236.86821801 67.17785848 236.86585485 73.6138156 236.86428833 80.04977417 C236.86235548 91.55302836 236.86545227 103.05627395 236.87054767 114.55952679 C236.87500831 124.95049561 236.87424388 135.34145325 236.86962891 145.73242188 C236.86425376 157.84040183 236.86229837 169.94837303 236.86524117 182.0563544 C236.86679173 188.45018143 236.8670316 194.84400078 236.86370468 201.2378273 C236.860791 207.25763645 236.86286517 213.27742475 236.86859894 219.29723167 C236.86990829 221.49201485 236.86956394 223.68679982 236.86733627 225.88158226 C236.86455168 228.90676489 236.86809293 231.9318831 236.87301636 234.95706177 C236.87078564 235.79944118 236.86855491 236.64182059 236.86625659 237.50972664 C236.89478152 246.7138871 237.51407516 255.76742809 238 265 C214.9 265 191.8 265 168 265 C164.7 259.06 161.4 253.12 158 247 C156.1023235 243.84381916 154.20751283 240.72770467 152.21484375 237.63671875 C151.72040268 236.86172531 151.22596161 236.08673187 150.71653748 235.28825378 C145.3632959 226.93576921 139.85498671 218.68570737 134.32907104 210.4468689 C131.25781844 205.86691591 128.19542638 201.28104492 125.1328125 196.6953125 C124.52229538 195.78140244 123.91177826 194.86749237 123.28276062 193.92588806 C115.67834087 182.53442576 108.17050351 171.08028929 100.67929077 159.61419678 C97.77341788 155.17053516 94.84370447 150.74314269 91.90625 146.3203125 C83.1243054 133.07591911 74.65454306 119.76554918 67.02709961 105.80810547 C66.09166296 104.16136341 65.05053849 102.57580774 64 101 C64.10498432 102.18643065 64.10498432 102.18643065 64.21208954 103.39682961 C64.86174109 111.18278723 65.15970079 118.90150176 65.18945312 126.71240234 C65.20189308 128.50790276 65.20189308 128.50790276 65.21458435 130.3396759 C65.23632472 133.58153731 65.25413039 136.82339175 65.27039146 140.06528425 C65.28877834 143.48687762 65.31313338 146.90842806 65.33703613 150.32998657 C65.39671673 159.01162668 65.44874948 167.69330665 65.5 176.375 C65.55535254 185.74611718 65.61214311 195.11721431 65.67754889 204.48826754 C65.70100289 207.87947135 65.7225955 211.27066464 65.73963928 214.6619072 C65.76073607 232.67084777 65.76073607 232.67084777 66.7911377 250.64126587 C67.08822712 255.41878859 67 260.21324896 67 265 C44.89 265 22.78 265 0 265 C0.33 258.73 0.66 252.46 1 246 C1.07699161 242.53450192 1.13696781 239.09072192 1.12698364 235.62745667 C1.12854363 234.74076402 1.13010362 233.85407138 1.13171089 232.94050926 C1.13560995 230.05219938 1.13257546 227.16394476 1.12939453 224.27563477 C1.13075361 222.17050649 1.13253637 220.06537845 1.13470459 217.96025085 C1.13922118 212.29851348 1.13751269 206.63679454 1.1343255 200.97505689 C1.13176879 195.00379215 1.13414885 189.03252885 1.13571167 183.06126404 C1.13752505 173.02920248 1.13515027 162.99714832 1.13037109 152.96508789 C1.12494348 141.44033512 1.12668358 129.91560008 1.1321975 118.39084774 C1.13676848 108.43087221 1.13735946 98.47090195 1.13475883 88.51092571 C1.13321608 82.59141846 1.13294605 76.67191948 1.13629532 70.7524128 C1.13923199 65.17325215 1.13709465 59.59411381 1.13140106 54.01495552 C1.13010339 51.99326616 1.13041493 49.97157485 1.13266373 47.94988632 C1.14880578 31.93303382 0.57237679 16.02655015 0 0 Z " fill="#FDFEFD" transform="translate(138,124)"/>
<path d="M0 0 C0.66 0.33 1.32 0.66 2 1 C-6.58 9.58 -15.16 18.16 -24 27 C-24 24 -24 24 -22.42578125 22.16796875 C-21.72839844 21.51441406 -21.03101562 20.86085938 -20.3125 20.1875 C-17.85981978 17.83361426 -15.65593193 15.57851662 -13.5 12.9375 C-10.84387659 9.81655499 -7.98829211 7.25468301 -4.8671875 4.61328125 C-3.16296232 3.14080217 -1.56975784 1.61363306 0 0 Z " fill="#4BB240" transform="translate(87,62)"/>
</svg>
